<mxfile host="app.diagrams.net" modified="2024-06-16T21:43:39.228Z" agent="Mozilla/5.0 (Windows NT 10.0; Win64; x64) AppleWebKit/537.36 (KHTML, like Gecko) Chrome/126.0.0.0 Safari/537.36" version="24.5.4" etag="2lgUIib0cMKx0GbL00pA" type="device">
  <diagram id="4x6fjJaqgVlxCiPTl5tT" name="Page-1">
    <mxGraphModel dx="6136" dy="1144" grid="1" gridSize="10" guides="1" tooltips="1" connect="1" arrows="1" fold="1" page="0" pageScale="1" pageWidth="850" pageHeight="1100" background="none" math="0" shadow="0">
      <root>
        <mxCell id="0" />
        <mxCell id="1" parent="0" />
        <mxCell id="node7" value="&lt;p style=&quot;margin:0px;margin-top:4px;text-align:center;&quot;&gt;&lt;b&gt;ApplicationConfiguration&lt;/b&gt;&lt;/p&gt;&lt;hr size=&quot;1&quot;/&gt;" style="verticalAlign=top;align=left;overflow=fill;fontSize=14;fontFamily=Helvetica;html=1;rounded=0;shadow=0;comic=0;labelBackgroundColor=none;strokeWidth=1;" parent="1" vertex="1">
          <mxGeometry x="1753" y="2489" width="239" height="30" as="geometry" />
        </mxCell>
        <mxCell id="node12" value="&lt;p style=&quot;margin:0px;margin-top:4px;text-align:center;&quot;&gt;&lt;b&gt;CreateProductRequest&lt;/b&gt;&lt;/p&gt;&lt;hr size=&quot;1&quot;/&gt;&lt;p style=&quot;margin:0 0 0 4px;line-height:1.6;&quot;&gt;- price: Double&lt;br/&gt;~ productImages: List&amp;lt;String&amp;gt;&lt;br/&gt;- categoryId: Integer&lt;br/&gt;- description: String&lt;br/&gt;- title: String&lt;br/&gt;~ productSpecifications: Map&amp;lt;String, String&amp;gt;&lt;/p&gt;&lt;hr size=&quot;1&quot;/&gt;&lt;p style=&quot;margin:0 0 0 4px;line-height:1.6;&quot;&gt;+ getPrice(): Double&lt;br/&gt;+ setTitle(String): void&lt;br/&gt;+ setProductImages(List&amp;lt;String&amp;gt;): void&lt;br/&gt;+ setPrice(Double): void&lt;br/&gt;+ getProductSpecifications(): Map&amp;lt;String, String&amp;gt;&lt;br/&gt;# canEqual(Object): boolean&lt;br/&gt;+ getProductImages(): List&amp;lt;String&amp;gt;&lt;br/&gt;+ setDescription(String): void&lt;br/&gt;+ getDescription(): String&lt;br/&gt;+ setCategoryId(Integer): void&lt;br/&gt;+ equals(Object): boolean&lt;br/&gt;+ builder(): CreateProductRequestBuilder&lt;br/&gt;+ setProductSpecifications(Map&amp;lt;String, String&amp;gt;): void&lt;br/&gt;+ toString(): String&lt;br/&gt;+ getCategoryId(): Integer&lt;br/&gt;+ getTitle(): String&lt;br/&gt;+ hashCode(): int&lt;/p&gt;" style="verticalAlign=top;align=left;overflow=fill;fontSize=14;fontFamily=Helvetica;html=1;rounded=0;shadow=0;comic=0;labelBackgroundColor=none;strokeWidth=1;" parent="1" vertex="1">
          <mxGeometry x="2029" y="2489" width="358" height="181" as="geometry" />
        </mxCell>
        <mxCell id="node16" value="&lt;p style=&quot;margin:0px;margin-top:4px;text-align:center;&quot;&gt;&lt;b&gt;GetProductsByCategoryRequest&lt;/b&gt;&lt;/p&gt;&lt;hr size=&quot;1&quot;/&gt;&lt;p style=&quot;margin:0 0 0 4px;line-height:1.6;&quot;&gt;~ categoriesIds: List&amp;lt;Integer&amp;gt;&lt;/p&gt;&lt;hr size=&quot;1&quot;/&gt;&lt;p style=&quot;margin:0 0 0 4px;line-height:1.6;&quot;&gt;+ equals(Object): boolean&lt;br/&gt;+ setCategoriesIds(List&amp;lt;Integer&amp;gt;): void&lt;br/&gt;+ hashCode(): int&lt;br/&gt;# canEqual(Object): boolean&lt;br/&gt;+ builder(): GetProductsByCategoryRequestBuilder&lt;br/&gt;+ getCategoriesIds(): List&amp;lt;Integer&amp;gt;&lt;br/&gt;+ toString(): String&lt;/p&gt;" style="verticalAlign=top;align=left;overflow=fill;fontSize=14;fontFamily=Helvetica;html=1;rounded=0;shadow=0;comic=0;labelBackgroundColor=none;strokeWidth=1;" parent="1" vertex="1">
          <mxGeometry x="1554" y="4966" width="347" height="63" as="geometry" />
        </mxCell>
        <mxCell id="node21" value="&lt;p style=&quot;margin:0px;margin-top:4px;text-align:center;&quot;&gt;&lt;b&gt;GetProductsByCategoryResponse&lt;/b&gt;&lt;/p&gt;&lt;hr size=&quot;1&quot;/&gt;&lt;p style=&quot;margin:0 0 0 4px;line-height:1.6;&quot;&gt;- totalItems: Integer&lt;br/&gt;~ products: List&amp;lt;ProductDTO&amp;gt;&lt;br/&gt;- hasPreviousPage: Boolean&lt;br/&gt;- currentPage: Integer&lt;br/&gt;- itemsPerPage: Integer&lt;br/&gt;- hasNextPage: Boolean&lt;br/&gt;- totalPages: Integer&lt;/p&gt;&lt;hr size=&quot;1&quot;/&gt;&lt;p style=&quot;margin:0 0 0 4px;line-height:1.6;&quot;&gt;# canEqual(Object): boolean&lt;br/&gt;+ getCurrentPage(): Integer&lt;br/&gt;+ setHasPreviousPage(Boolean): void&lt;br/&gt;+ setTotalItems(Integer): void&lt;br/&gt;+ setCurrentPage(Integer): void&lt;br/&gt;+ setTotalPages(Integer): void&lt;br/&gt;+ builder(): GetProductsByCategoryResponseBuilder&lt;br/&gt;+ setItemsPerPage(Integer): void&lt;br/&gt;+ getProducts(): List&amp;lt;ProductDTO&amp;gt;&lt;br/&gt;+ equals(Object): boolean&lt;br/&gt;+ getTotalItems(): Integer&lt;br/&gt;+ hashCode(): int&lt;br/&gt;+ getTotalPages(): Integer&lt;br/&gt;+ getItemsPerPage(): Integer&lt;br/&gt;+ toString(): String&lt;br/&gt;+ getHasPreviousPage(): Boolean&lt;br/&gt;+ setHasNextPage(Boolean): void&lt;br/&gt;+ getHasNextPage(): Boolean&lt;br/&gt;+ setProducts(List&amp;lt;ProductDTO&amp;gt;): void&lt;/p&gt;" style="verticalAlign=top;align=left;overflow=fill;fontSize=14;fontFamily=Helvetica;html=1;rounded=0;shadow=0;comic=0;labelBackgroundColor=none;strokeWidth=1;" parent="1" vertex="1">
          <mxGeometry x="2292" y="2945" width="335" height="201" as="geometry" />
        </mxCell>
        <mxCell id="node0" value="&lt;p style=&quot;margin:0px;margin-top:4px;text-align:center;&quot;&gt;&lt;b&gt;GetProductsByIdsRequest&lt;/b&gt;&lt;/p&gt;&lt;hr size=&quot;1&quot;/&gt;&lt;p style=&quot;margin:0 0 0 4px;line-height:1.6;&quot;&gt;~ productIds: List&amp;lt;Integer&amp;gt;&lt;/p&gt;&lt;hr size=&quot;1&quot;/&gt;&lt;p style=&quot;margin:0 0 0 4px;line-height:1.6;&quot;&gt;+ equals(Object): boolean&lt;br/&gt;+ builder(): GetProductsByIdsRequestBuilder&lt;br/&gt;+ getProductIds(): List&amp;lt;Integer&amp;gt;&lt;br/&gt;# canEqual(Object): boolean&lt;br/&gt;+ hashCode(): int&lt;br/&gt;+ setProductIds(List&amp;lt;Integer&amp;gt;): void&lt;br/&gt;+ toString(): String&lt;/p&gt;" style="verticalAlign=top;align=left;overflow=fill;fontSize=14;fontFamily=Helvetica;html=1;rounded=0;shadow=0;comic=0;labelBackgroundColor=none;strokeWidth=1;" parent="1" vertex="1">
          <mxGeometry x="1448" y="3892" width="283" height="63" as="geometry" />
        </mxCell>
        <mxCell id="node36" value="&lt;p style=&quot;margin:0px;margin-top:4px;text-align:center;&quot;&gt;&lt;b&gt;GetProductsByIdsResponse&lt;/b&gt;&lt;/p&gt;&lt;hr size=&quot;1&quot;/&gt;&lt;p style=&quot;margin:0 0 0 4px;line-height:1.6;&quot;&gt;~ products: List&amp;lt;ProductDTO&amp;gt;&lt;/p&gt;&lt;hr size=&quot;1&quot;/&gt;&lt;p style=&quot;margin:0 0 0 4px;line-height:1.6;&quot;&gt;+ builder(): GetProductsByIdsResponseBuilder&lt;br/&gt;+ toString(): String&lt;br/&gt;+ getProducts(): List&amp;lt;ProductDTO&amp;gt;&lt;br/&gt;+ equals(Object): boolean&lt;br/&gt;# canEqual(Object): boolean&lt;br/&gt;+ setProducts(List&amp;lt;ProductDTO&amp;gt;): void&lt;br/&gt;+ hashCode(): int&lt;/p&gt;" style="verticalAlign=top;align=left;overflow=fill;fontSize=14;fontFamily=Helvetica;html=1;rounded=0;shadow=0;comic=0;labelBackgroundColor=none;strokeWidth=1;" parent="1" vertex="1">
          <mxGeometry x="1477" y="3158" width="326" height="65" as="geometry" />
        </mxCell>
        <mxCell id="node33" value="&lt;p style=&quot;margin:0px;margin-top:4px;text-align:center;&quot;&gt;&lt;b&gt;GetProductsLikeStatusRequest&lt;/b&gt;&lt;/p&gt;&lt;hr size=&quot;1&quot;/&gt;&lt;p style=&quot;margin:0 0 0 4px;line-height:1.6;&quot;&gt;~ productIds: List&amp;lt;Integer&amp;gt;&lt;/p&gt;&lt;hr size=&quot;1&quot;/&gt;&lt;p style=&quot;margin:0 0 0 4px;line-height:1.6;&quot;&gt;# canEqual(Object): boolean&lt;br/&gt;+ setProductIds(List&amp;lt;Integer&amp;gt;): void&lt;br/&gt;+ equals(Object): boolean&lt;br/&gt;+ builder(): GetProductsLikeStatusRequestBuilder&lt;br/&gt;+ hashCode(): int&lt;br/&gt;+ toString(): String&lt;br/&gt;+ getProductIds(): List&amp;lt;Integer&amp;gt;&lt;/p&gt;" style="verticalAlign=top;align=left;overflow=fill;fontSize=14;fontFamily=Helvetica;html=1;rounded=0;shadow=0;comic=0;labelBackgroundColor=none;strokeWidth=1;" parent="1" vertex="1">
          <mxGeometry x="667" y="3383" width="333" height="61" as="geometry" />
        </mxCell>
        <mxCell id="node8" value="&lt;p style=&quot;margin:0px;margin-top:4px;text-align:center;&quot;&gt;&lt;b&gt;GetProductsLikeStatusResponse&lt;/b&gt;&lt;/p&gt;&lt;hr size=&quot;1&quot;/&gt;&lt;p style=&quot;margin:0 0 0 4px;line-height:1.6;&quot;&gt;- productsLikeStatus: List&amp;lt;ProductLikeStatusDTO&amp;gt;&lt;/p&gt;&lt;hr size=&quot;1&quot;/&gt;&lt;p style=&quot;margin:0 0 0 4px;line-height:1.6;&quot;&gt;+ setProductsLikeStatus(List&amp;lt;ProductLikeStatusDTO&amp;gt;): void&lt;br/&gt;+ toString(): String&lt;br/&gt;+ getProductsLikeStatus(): List&amp;lt;ProductLikeStatusDTO&amp;gt;&lt;br/&gt;+ builder(): GetProductsLikeStatusResponseBuilder&lt;br/&gt;+ equals(Object): boolean&lt;br/&gt;+ hashCode(): int&lt;br/&gt;# canEqual(Object): boolean&lt;/p&gt;" style="verticalAlign=top;align=left;overflow=fill;fontSize=14;fontFamily=Helvetica;html=1;rounded=0;shadow=0;comic=0;labelBackgroundColor=none;strokeWidth=1;" parent="1" vertex="1">
          <mxGeometry x="67" y="3648" width="437" height="61" as="geometry" />
        </mxCell>
        <mxCell id="node6" value="&lt;p style=&quot;margin:0px;margin-top:4px;text-align:center;&quot;&gt;&lt;b&gt;GetProductsResponse&lt;/b&gt;&lt;/p&gt;&lt;hr size=&quot;1&quot;/&gt;&lt;p style=&quot;margin:0 0 0 4px;line-height:1.6;&quot;&gt;- totalItems: Integer&lt;br/&gt;- itemsPerPage: Integer&lt;br/&gt;- hasPreviousPage: Boolean&lt;br/&gt;- currentPage: Integer&lt;br/&gt;- products: List&amp;lt;ProductDTO&amp;gt;&lt;br/&gt;- hasNextPage: Boolean&lt;br/&gt;- totalPages: Integer&lt;/p&gt;&lt;hr size=&quot;1&quot;/&gt;&lt;p style=&quot;margin:0 0 0 4px;line-height:1.6;&quot;&gt;+ getItemsPerPage(): Integer&lt;br/&gt;+ setCurrentPage(Integer): void&lt;br/&gt;+ setHasPreviousPage(Boolean): void&lt;br/&gt;+ setItemsPerPage(Integer): void&lt;br/&gt;+ getHasNextPage(): Boolean&lt;br/&gt;+ getHasPreviousPage(): Boolean&lt;br/&gt;+ builder(): GetProductsResponseBuilder&lt;br/&gt;+ getProducts(): List&amp;lt;ProductDTO&amp;gt;&lt;br/&gt;+ getCurrentPage(): Integer&lt;br/&gt;+ toString(): String&lt;br/&gt;+ hashCode(): int&lt;br/&gt;+ getTotalItems(): Integer&lt;br/&gt;+ setHasNextPage(Boolean): void&lt;br/&gt;# canEqual(Object): boolean&lt;br/&gt;+ setTotalItems(Integer): void&lt;br/&gt;+ equals(Object): boolean&lt;br/&gt;+ setProducts(List&amp;lt;ProductDTO&amp;gt;): void&lt;br/&gt;+ getTotalPages(): Integer&lt;br/&gt;+ setTotalPages(Integer): void&lt;/p&gt;" style="verticalAlign=top;align=left;overflow=fill;fontSize=14;fontFamily=Helvetica;html=1;rounded=0;shadow=0;comic=0;labelBackgroundColor=none;strokeWidth=1;" parent="1" vertex="1">
          <mxGeometry x="1074" y="3167" width="279" height="201" as="geometry" />
        </mxCell>
        <mxCell id="node2" value="&lt;p style=&quot;margin:0px;margin-top:4px;text-align:center;&quot;&gt;&lt;i&gt;&amp;lt;&amp;lt;interface&amp;gt;&amp;gt;&lt;/i&gt;&lt;br/&gt;&lt;b&gt;GetProductsService&lt;/b&gt;&lt;/p&gt;&lt;hr size=&quot;1&quot;/&gt;&lt;p style=&quot;margin:0 0 0 4px;line-height:1.6;&quot;&gt;+ getProductsByUser(Integer, Integer, Integer, String): GetProductsResponse&lt;br/&gt;+ getProductsByIds(GetProductsByIdsRequest): GetProductsByIdsResponse&lt;br/&gt;+ getRecommendedProducts(Integer, Integer, String): GetProductsResponse&lt;br/&gt;+ getProductsByCategory(Integer, Integer, String, GetProductsByCategoryRequest): GetProductsByCategoryResponse&lt;br/&gt;+ getLikedProductsByUser(Integer, Integer, Integer, String): GetProductsResponse&lt;br/&gt;+ getProductById(Integer): ProductDTO&lt;/p&gt;" style="verticalAlign=top;align=left;overflow=fill;fontSize=14;fontFamily=Helvetica;html=1;rounded=0;shadow=0;comic=0;labelBackgroundColor=none;strokeWidth=1;" parent="1" vertex="1">
          <mxGeometry x="1130" y="4048" width="601" height="183" as="geometry" />
        </mxCell>
        <mxCell id="node13" value="&lt;p style=&quot;margin:0px;margin-top:4px;text-align:center;&quot;&gt;&lt;b&gt;GetProductsServiceImpl&lt;/b&gt;&lt;/p&gt;&lt;hr size=&quot;1&quot;/&gt;&lt;p style=&quot;margin:0 0 0 4px;line-height:1.6;&quot;&gt;- productRepository: ProductRepository&lt;br/&gt;- log: Logger&lt;br/&gt;- exceptionFactory: ExceptionFactory&lt;br/&gt;- productImageRepository: ProductImageRepository&lt;br/&gt;- productLikeRepository: ProductLikeRepository&lt;/p&gt;&lt;hr size=&quot;1&quot;/&gt;&lt;p style=&quot;margin:0 0 0 4px;line-height:1.6;&quot;&gt;+ getLikedProductsByUser(Integer, Integer, Integer, String): GetProductsResponse&lt;br/&gt;- createGetProductsResponse(Page&amp;lt;?&amp;gt;, List&amp;lt;ProductDTO&amp;gt;): GetProductsResponse&lt;br/&gt;+ getProductsByIds(GetProductsByIdsRequest): GetProductsByIdsResponse&lt;br/&gt;+ getProductsByCategory(Integer, Integer, String, GetProductsByCategoryRequest): GetProductsByCategoryResponse&lt;br/&gt;- getProductLikeSortingCriteria(String): String&lt;br/&gt;+ getProductsByUser(Integer, Integer, Integer, String): GetProductsResponse&lt;br/&gt;- convertToProductDTO(ProductProjection): ProductDTO&lt;br/&gt;+ getRecommendedProducts(Integer, Integer, String): GetProductsResponse&lt;br/&gt;- getProductSortingCriteria(String): String&lt;br/&gt;+ getProductById(Integer): ProductDTO&lt;br/&gt;- createGetProductsByCategoryResponse(Page&amp;lt;?&amp;gt;, List&amp;lt;ProductDTO&amp;gt;): GetProductsByCategoryResponse&lt;/p&gt;" style="verticalAlign=top;align=left;overflow=fill;fontSize=14;fontFamily=Helvetica;html=1;rounded=0;shadow=0;comic=0;labelBackgroundColor=none;strokeWidth=1;" parent="1" vertex="1">
          <mxGeometry x="67" y="4574" width="682" height="426" as="geometry" />
        </mxCell>
        <mxCell id="node15" value="&lt;p style=&quot;margin:0px;margin-top:4px;text-align:center;&quot;&gt;&lt;b&gt;Product&lt;/b&gt;&lt;/p&gt;&lt;hr size=&quot;1&quot;/&gt;&lt;p style=&quot;margin:0 0 0 4px;line-height:1.6;&quot;&gt;- userId: Integer&lt;br/&gt;- creationDate: ZonedDateTime&lt;br/&gt;- productSpecifications: List&amp;lt;ProductSpecification&amp;gt;&lt;br/&gt;- productId: Integer&lt;br/&gt;- popularity: Integer&lt;br/&gt;- categoryId: Integer&lt;br/&gt;- title: String&lt;br/&gt;- description: String&lt;br/&gt;- productImages: List&amp;lt;ProductImage&amp;gt;&lt;br/&gt;- price: Double&lt;/p&gt;&lt;hr size=&quot;1&quot;/&gt;&lt;p style=&quot;margin:0 0 0 4px;line-height:1.6;&quot;&gt;+ getTitle(): String&lt;br/&gt;+ getProductImages(): List&amp;lt;ProductImage&amp;gt;&lt;br/&gt;+ getPrice(): Double&lt;br/&gt;+ getProductId(): Integer&lt;br/&gt;+ setUserId(Integer): void&lt;br/&gt;+ builder(): ProductBuilder&lt;br/&gt;# canEqual(Object): boolean&lt;br/&gt;+ getCreationDate(): ZonedDateTime&lt;br/&gt;+ setCreationDate(): void&lt;br/&gt;+ setCategoryId(Integer): void&lt;br/&gt;+ getDescription(): String&lt;br/&gt;+ setTitle(String): void&lt;br/&gt;+ setProductImages(List&amp;lt;ProductImage&amp;gt;): void&lt;br/&gt;+ toString(): String&lt;br/&gt;+ getUserId(): Integer&lt;br/&gt;+ setDescription(String): void&lt;br/&gt;+ setPopularity(Integer): void&lt;br/&gt;+ setCreationDate(ZonedDateTime): void&lt;br/&gt;+ getCategoryId(): Integer&lt;br/&gt;+ getProductSpecifications(): List&amp;lt;ProductSpecification&amp;gt;&lt;br/&gt;+ equals(Object): boolean&lt;br/&gt;+ getPopularity(): Integer&lt;br/&gt;+ setProductSpecifications(List&amp;lt;ProductSpecification&amp;gt;): void&lt;br/&gt;+ setPrice(Double): void&lt;br/&gt;+ setProductId(Integer): void&lt;br/&gt;+ hashCode(): int&lt;/p&gt;" style="verticalAlign=top;align=left;overflow=fill;fontSize=14;fontFamily=Helvetica;html=1;rounded=0;shadow=0;comic=0;labelBackgroundColor=none;strokeWidth=1;" parent="1" vertex="1">
          <mxGeometry x="115" y="2933" width="389" height="273" as="geometry" />
        </mxCell>
        <mxCell id="node9" value="&lt;p style=&quot;margin:0px;margin-top:4px;text-align:center;&quot;&gt;&lt;b&gt;ProductApplication&lt;/b&gt;&lt;/p&gt;&lt;hr size=&quot;1&quot;/&gt;&lt;p style=&quot;margin:0 0 0 4px;line-height:1.6;&quot;&gt;+ main(String[]): void&lt;/p&gt;" style="verticalAlign=top;align=left;overflow=fill;fontSize=14;fontFamily=Helvetica;html=1;rounded=0;shadow=0;comic=0;labelBackgroundColor=none;strokeWidth=1;" parent="1" vertex="1">
          <mxGeometry x="1340" y="3031" width="198" height="68" as="geometry" />
        </mxCell>
        <mxCell id="node17" value="&lt;p style=&quot;margin:0px;margin-top:4px;text-align:center;&quot;&gt;&lt;b&gt;ProductController&lt;/b&gt;&lt;/p&gt;&lt;hr size=&quot;1&quot;/&gt;&lt;p style=&quot;margin:0 0 0 4px;line-height:1.6;&quot;&gt;- productOperationsService: ProductOperationsService&lt;br/&gt;- log: Logger&lt;br/&gt;- getProductsService: GetProductsService&lt;/p&gt;&lt;hr size=&quot;1&quot;/&gt;&lt;p style=&quot;margin:0 0 0 4px;line-height:1.6;&quot;&gt;+ getProductsByCategory(Integer, Integer, String, GetProductsByCategoryRequest): ResponseEntity&amp;lt;GetProductsByCategoryResponse&amp;gt;&lt;br/&gt;+ deleteProductAdmin(Integer): void&lt;br/&gt;+ createProduct(Integer, CreateProductRequest): ResponseEntity&amp;lt;Integer&amp;gt;&lt;br/&gt;+ getProductsByIds(GetProductsByIdsRequest): ResponseEntity&amp;lt;GetProductsByIdsResponse&amp;gt;&lt;br/&gt;+ getLikedProductsByUser(Integer, Integer, Integer, String): ResponseEntity&amp;lt;GetProductsResponse&amp;gt;&lt;br/&gt;+ deleteProduct(Integer, Integer): void&lt;br/&gt;+ updateProduct(Integer, UpdateProductRequest): void&lt;br/&gt;+ getProductsByUser(Integer, Integer, Integer, String): ResponseEntity&amp;lt;GetProductsResponse&amp;gt;&lt;br/&gt;+ changeProductLikeStatus(Integer, Integer): void&lt;br/&gt;+ getProductById(Integer): ResponseEntity&amp;lt;ProductDTO&amp;gt;&lt;br/&gt;+ getProductsLikeStatus(Integer, GetProductsLikeStatusRequest): ResponseEntity&amp;lt;GetProductsLikeStatusResponse&amp;gt;&lt;br/&gt;+ getRecommendedProducts(Integer, Integer, String): ResponseEntity&amp;lt;GetProductsResponse&amp;gt;&lt;/p&gt;" style="verticalAlign=top;align=left;overflow=fill;fontSize=14;fontFamily=Helvetica;html=1;rounded=0;shadow=0;comic=0;labelBackgroundColor=none;strokeWidth=1;" parent="1" vertex="1">
          <mxGeometry x="1607" y="4524" width="763" height="402" as="geometry" />
        </mxCell>
        <mxCell id="node29" value="&lt;p style=&quot;margin:0px;margin-top:4px;text-align:center;&quot;&gt;&lt;b&gt;ProductDTO&lt;/b&gt;&lt;/p&gt;&lt;hr size=&quot;1&quot;/&gt;&lt;p style=&quot;margin:0 0 0 4px;line-height:1.6;&quot;&gt;- title: String&lt;br/&gt;- popularity: Integer&lt;br/&gt;~ productSpecifications: List&amp;lt;ProductSpecificationDTO&amp;gt;&lt;br/&gt;- categoryId: Integer&lt;br/&gt;- userId: Integer&lt;br/&gt;- description: String&lt;br/&gt;- price: Double&lt;br/&gt;- productId: Integer&lt;br/&gt;- creationDate: ZonedDateTime&lt;br/&gt;~ productImages: List&amp;lt;ProductImageDTO&amp;gt;&lt;/p&gt;&lt;hr size=&quot;1&quot;/&gt;&lt;p style=&quot;margin:0 0 0 4px;line-height:1.6;&quot;&gt;+ setTitle(String): void&lt;br/&gt;+ getPopularity(): Integer&lt;br/&gt;+ builder(): ProductDTOBuilder&lt;br/&gt;+ setDescription(String): void&lt;br/&gt;+ toString(): String&lt;br/&gt;+ getCategoryId(): Integer&lt;br/&gt;+ getUserId(): Integer&lt;br/&gt;+ getProductImages(): List&amp;lt;ProductImageDTO&amp;gt;&lt;br/&gt;+ equals(Object): boolean&lt;br/&gt;+ getPrice(): Double&lt;br/&gt;+ setUserId(Integer): void&lt;br/&gt;+ getDescription(): String&lt;br/&gt;+ setPopularity(Integer): void&lt;br/&gt;+ setProductImages(List&amp;lt;ProductImageDTO&amp;gt;): void&lt;br/&gt;+ getProductSpecifications(): List&amp;lt;ProductSpecificationDTO&amp;gt;&lt;br/&gt;+ getCreationDate(): ZonedDateTime&lt;br/&gt;+ setCreationDate(ZonedDateTime): void&lt;br/&gt;+ setProductSpecifications(List&amp;lt;ProductSpecificationDTO&amp;gt;): void&lt;br/&gt;# canEqual(Object): boolean&lt;br/&gt;+ setCategoryId(Integer): void&lt;br/&gt;+ hashCode(): int&lt;br/&gt;+ getTitle(): String&lt;br/&gt;+ setPrice(Double): void&lt;br/&gt;+ getProductId(): Integer&lt;br/&gt;+ setProductId(Integer): void&lt;/p&gt;" style="verticalAlign=top;align=left;overflow=fill;fontSize=14;fontFamily=Helvetica;html=1;rounded=0;shadow=0;comic=0;labelBackgroundColor=none;strokeWidth=1;" parent="1" vertex="1">
          <mxGeometry x="267" y="2281" width="415" height="273" as="geometry" />
        </mxCell>
        <mxCell id="node14" value="&lt;p style=&quot;margin:0px;margin-top:4px;text-align:center;&quot;&gt;&lt;b&gt;ProductImage&lt;/b&gt;&lt;/p&gt;&lt;hr size=&quot;1&quot;/&gt;&lt;p style=&quot;margin:0 0 0 4px;line-height:1.6;&quot;&gt;- imageUrl: String&lt;br/&gt;- id: Integer&lt;br/&gt;- product: Product&lt;/p&gt;&lt;hr size=&quot;1&quot;/&gt;&lt;p style=&quot;margin:0 0 0 4px;line-height:1.6;&quot;&gt;+ getProduct(): Product&lt;br/&gt;+ setProduct(Product): void&lt;br/&gt;+ builder(): ProductImageBuilder&lt;br/&gt;+ hashCode(): int&lt;br/&gt;+ equals(Object): boolean&lt;br/&gt;+ getImageUrl(): String&lt;br/&gt;# canEqual(Object): boolean&lt;br/&gt;+ setId(Integer): void&lt;br/&gt;+ getId(): Integer&lt;br/&gt;+ setImageUrl(String): void&lt;br/&gt;+ toString(): String&lt;/p&gt;" style="verticalAlign=top;align=left;overflow=fill;fontSize=14;fontFamily=Helvetica;html=1;rounded=0;shadow=0;comic=0;labelBackgroundColor=none;strokeWidth=1;" parent="1" vertex="1">
          <mxGeometry x="738" y="2995" width="224" height="120" as="geometry" />
        </mxCell>
        <mxCell id="node34" value="&lt;p style=&quot;margin:0px;margin-top:4px;text-align:center;&quot;&gt;&lt;b&gt;ProductImageDTO&lt;/b&gt;&lt;/p&gt;&lt;hr size=&quot;1&quot;/&gt;&lt;p style=&quot;margin:0 0 0 4px;line-height:1.6;&quot;&gt;- imageUrl: String&lt;/p&gt;&lt;hr size=&quot;1&quot;/&gt;&lt;p style=&quot;margin:0 0 0 4px;line-height:1.6;&quot;&gt;+ toString(): String&lt;br/&gt;+ equals(Object): boolean&lt;br/&gt;+ getImageUrl(): String&lt;br/&gt;+ setImageUrl(String): void&lt;br/&gt;# canEqual(Object): boolean&lt;br/&gt;+ builder(): ProductImageDTOBuilder&lt;br/&gt;+ hashCode(): int&lt;/p&gt;" style="verticalAlign=top;align=left;overflow=fill;fontSize=14;fontFamily=Helvetica;html=1;rounded=0;shadow=0;comic=0;labelBackgroundColor=none;strokeWidth=1;" parent="1" vertex="1">
          <mxGeometry x="1225" y="2666" width="242" height="61" as="geometry" />
        </mxCell>
        <mxCell id="node28" value="&lt;p style=&quot;margin:0px;margin-top:4px;text-align:center;&quot;&gt;&lt;b&gt;ProductImageMapper&lt;/b&gt;&lt;/p&gt;&lt;hr size=&quot;1&quot;/&gt;&lt;p style=&quot;margin:0 0 0 4px;line-height:1.6;&quot;&gt;+ prodImageDtoToProdImage(ProductImageDTO): ProductImage&lt;br/&gt;+ prodImageToProdImageDto(ProductImage): ProductImageDTO&lt;/p&gt;" style="verticalAlign=top;align=left;overflow=fill;fontSize=14;fontFamily=Helvetica;html=1;rounded=0;shadow=0;comic=0;labelBackgroundColor=none;strokeWidth=1;" parent="1" vertex="1">
          <mxGeometry x="619" y="3512" width="430" height="94" as="geometry" />
        </mxCell>
        <mxCell id="node1" value="&lt;p style=&quot;margin:0px;margin-top:4px;text-align:center;&quot;&gt;&lt;i&gt;&amp;lt;&amp;lt;interface&amp;gt;&amp;gt;&lt;/i&gt;&lt;br/&gt;&lt;b&gt;ProductImageRepository&lt;/b&gt;&lt;/p&gt;&lt;hr size=&quot;1&quot;/&gt;&lt;p style=&quot;margin:0 0 0 4px;line-height:1.6;&quot;&gt;+ findImagesByProductId(Integer): Optional&amp;lt;List&amp;lt;ProductImage&amp;gt;&amp;gt;&lt;/p&gt;" style="verticalAlign=top;align=left;overflow=fill;fontSize=14;fontFamily=Helvetica;html=1;rounded=0;shadow=0;comic=0;labelBackgroundColor=none;strokeWidth=1;" parent="1" vertex="1">
          <mxGeometry x="138" y="4383" width="448" height="79" as="geometry" />
        </mxCell>
        <mxCell id="node26" value="&lt;p style=&quot;margin:0px;margin-top:4px;text-align:center;&quot;&gt;&lt;b&gt;ProductLike&lt;/b&gt;&lt;/p&gt;&lt;hr size=&quot;1&quot;/&gt;&lt;p style=&quot;margin:0 0 0 4px;line-height:1.6;&quot;&gt;- userId: Integer&lt;br/&gt;- productId: Integer&lt;br/&gt;- lastUpdateAction: ZonedDateTime&lt;br/&gt;- status: String&lt;br/&gt;- id: Integer&lt;/p&gt;&lt;hr size=&quot;1&quot;/&gt;&lt;p style=&quot;margin:0 0 0 4px;line-height:1.6;&quot;&gt;+ equals(Object): boolean&lt;br/&gt;+ builder(): ProductLikeBuilder&lt;br/&gt;+ getStatus(): String&lt;br/&gt;+ setUserId(Integer): void&lt;br/&gt;+ setId(Integer): void&lt;br/&gt;+ setLastUpdateAction(ZonedDateTime): void&lt;br/&gt;+ getId(): Integer&lt;br/&gt;+ setProductId(Integer): void&lt;br/&gt;# canEqual(Object): boolean&lt;br/&gt;+ toString(): String&lt;br/&gt;+ getProductId(): Integer&lt;br/&gt;+ getLastUpdateAction(): ZonedDateTime&lt;br/&gt;+ setLastUpdateAction(): void&lt;br/&gt;+ getUserId(): Integer&lt;br/&gt;+ hashCode(): int&lt;br/&gt;+ setStatus(String): void&lt;/p&gt;" style="verticalAlign=top;align=left;overflow=fill;fontSize=14;fontFamily=Helvetica;html=1;rounded=0;shadow=0;comic=0;labelBackgroundColor=none;strokeWidth=1;" parent="1" vertex="1">
          <mxGeometry x="877" y="2567" width="308" height="152" as="geometry" />
        </mxCell>
        <mxCell id="node5" value="&lt;p style=&quot;margin:0px;margin-top:4px;text-align:center;&quot;&gt;&lt;i&gt;&amp;lt;&amp;lt;interface&amp;gt;&amp;gt;&lt;/i&gt;&lt;br/&gt;&lt;b&gt;ProductLikeRepository&lt;/b&gt;&lt;/p&gt;&lt;hr size=&quot;1&quot;/&gt;&lt;p style=&quot;margin:0 0 0 4px;line-height:1.6;&quot;&gt;+ findProductLikeByUserIdAndProductIdIn(Integer, List&amp;lt;Integer&amp;gt;): Optional&amp;lt;List&amp;lt;ProductLike&amp;gt;&amp;gt;&lt;br/&gt;+ findAllByUserIdAndStatus(Integer, String, Pageable): Page&amp;lt;ProductLike&amp;gt;&lt;br/&gt;+ deleteAllByProductId(Integer): void&lt;br/&gt;+ findProductLikeByUserIdAndProductId(Integer, Integer): Optional&amp;lt;ProductLike&amp;gt;&lt;/p&gt;" style="verticalAlign=top;align=left;overflow=fill;fontSize=14;fontFamily=Helvetica;html=1;rounded=0;shadow=0;comic=0;labelBackgroundColor=none;strokeWidth=1;" parent="1" vertex="1">
          <mxGeometry x="719" y="4383" width="624" height="169" as="geometry" />
        </mxCell>
        <mxCell id="node24" value="&lt;p style=&quot;margin:0px;margin-top:4px;text-align:center;&quot;&gt;&lt;i&gt;&amp;lt;&amp;lt;enumeration&amp;gt;&amp;gt;&lt;/i&gt;&lt;br/&gt;&lt;b&gt;ProductLikeSortCriteria&lt;/b&gt;&lt;/p&gt;&lt;hr size=&quot;1&quot;/&gt;&lt;p style=&quot;margin:0 0 0 4px;line-height:1.6;&quot;&gt;+ NEWEST: &lt;/p&gt;&lt;hr size=&quot;1&quot;/&gt;&lt;p style=&quot;margin:0 0 0 4px;line-height:1.6;&quot;&gt;+ values(): ProductLikeSortCriteria[]&lt;br/&gt;+ valueOf(String): ProductLikeSortCriteria&lt;/p&gt;" style="verticalAlign=top;align=left;overflow=fill;fontSize=14;fontFamily=Helvetica;html=1;rounded=0;shadow=0;comic=0;labelBackgroundColor=none;strokeWidth=1;" parent="1" vertex="1">
          <mxGeometry x="1251" y="2783" width="287" height="79" as="geometry" />
        </mxCell>
        <mxCell id="node10" value="&lt;p style=&quot;margin:0px;margin-top:4px;text-align:center;&quot;&gt;&lt;i&gt;&amp;lt;&amp;lt;enumeration&amp;gt;&amp;gt;&lt;/i&gt;&lt;br/&gt;&lt;b&gt;ProductLikeStatus&lt;/b&gt;&lt;/p&gt;&lt;hr size=&quot;1&quot;/&gt;&lt;p style=&quot;margin:0 0 0 4px;line-height:1.6;&quot;&gt;+ INACTIVE: &lt;br/&gt;+ ACTIVE: &lt;/p&gt;&lt;hr size=&quot;1&quot;/&gt;&lt;p style=&quot;margin:0 0 0 4px;line-height:1.6;&quot;&gt;+ values(): ProductLikeStatus[]&lt;br/&gt;+ valueOf(String): ProductLikeStatus&lt;/p&gt;" style="verticalAlign=top;align=left;overflow=fill;fontSize=14;fontFamily=Helvetica;html=1;rounded=0;shadow=0;comic=0;labelBackgroundColor=none;strokeWidth=1;" parent="1" vertex="1">
          <mxGeometry x="1443" y="2434" width="254" height="104" as="geometry" />
        </mxCell>
        <mxCell id="node27" value="&lt;p style=&quot;margin:0px;margin-top:4px;text-align:center;&quot;&gt;&lt;b&gt;ProductLikeStatusDTO&lt;/b&gt;&lt;/p&gt;&lt;hr size=&quot;1&quot;/&gt;&lt;p style=&quot;margin:0 0 0 4px;line-height:1.6;&quot;&gt;- likeStatus: String&lt;br/&gt;- productId: Integer&lt;/p&gt;&lt;hr size=&quot;1&quot;/&gt;&lt;p style=&quot;margin:0 0 0 4px;line-height:1.6;&quot;&gt;+ toString(): String&lt;br/&gt;+ builder(): ProductLikeStatusDTOBuilder&lt;br/&gt;+ getLikeStatus(): String&lt;br/&gt;+ hashCode(): int&lt;br/&gt;# canEqual(Object): boolean&lt;br/&gt;+ equals(Object): boolean&lt;br/&gt;+ setProductId(Integer): void&lt;br/&gt;+ setLikeStatus(String): void&lt;br/&gt;+ getProductId(): Integer&lt;/p&gt;" style="verticalAlign=top;align=left;overflow=fill;fontSize=14;fontFamily=Helvetica;html=1;rounded=0;shadow=0;comic=0;labelBackgroundColor=none;strokeWidth=1;" parent="1" vertex="1">
          <mxGeometry x="142" y="3260" width="287" height="306" as="geometry" />
        </mxCell>
        <mxCell id="node37" value="&lt;p style=&quot;margin:0px;margin-top:4px;text-align:center;&quot;&gt;&lt;b&gt;ProductMapper&lt;/b&gt;&lt;/p&gt;&lt;hr size=&quot;1&quot;/&gt;&lt;p style=&quot;margin:0 0 0 4px;line-height:1.6;&quot;&gt;+ productToProductDto(Product): ProductDTO&lt;br/&gt;+ productDtoToProduct(ProductDTO): Product&lt;/p&gt;" style="verticalAlign=top;align=left;overflow=fill;fontSize=14;fontFamily=Helvetica;html=1;rounded=0;shadow=0;comic=0;labelBackgroundColor=none;strokeWidth=1;" parent="1" vertex="1">
          <mxGeometry x="67" y="3876" width="322" height="94" as="geometry" />
        </mxCell>
        <mxCell id="node30" value="&lt;p style=&quot;margin:0px;margin-top:4px;text-align:center;&quot;&gt;&lt;i&gt;&amp;lt;&amp;lt;interface&amp;gt;&amp;gt;&lt;/i&gt;&lt;br/&gt;&lt;b&gt;ProductOperationsService&lt;/b&gt;&lt;/p&gt;&lt;hr size=&quot;1&quot;/&gt;&lt;p style=&quot;margin:0 0 0 4px;line-height:1.6;&quot;&gt;+ changeProductLikeStatus(Integer, Integer): void&lt;br/&gt;+ getProductsLikeStatus(Integer, GetProductsLikeStatusRequest): GetProductsLikeStatusResponse&lt;br/&gt;+ createProduct(Integer, CreateProductRequest): Integer&lt;br/&gt;+ updateProduct(Integer, UpdateProductRequest): void&lt;br/&gt;+ deleteProduct(Integer, Integer): void&lt;br/&gt;+ deleteProductAdmin(Integer): void&lt;/p&gt;" style="verticalAlign=top;align=left;overflow=fill;fontSize=14;fontFamily=Helvetica;html=1;rounded=0;shadow=0;comic=0;labelBackgroundColor=none;strokeWidth=1;" parent="1" vertex="1">
          <mxGeometry x="1474" y="3405" width="647" height="183" as="geometry" />
        </mxCell>
        <mxCell id="node31" value="&lt;p style=&quot;margin:0px;margin-top:4px;text-align:center;&quot;&gt;&lt;b&gt;ProductOperationsServiceImpl&lt;/b&gt;&lt;/p&gt;&lt;hr size=&quot;1&quot;/&gt;&lt;p style=&quot;margin:0 0 0 4px;line-height:1.6;&quot;&gt;- productRepository: ProductRepository&lt;br/&gt;- log: Logger&lt;br/&gt;- productImageRepository: ProductImageRepository&lt;br/&gt;- productSpecificationsRepository: ProductSpecificationRepository&lt;br/&gt;- productLikeRepository: ProductLikeRepository&lt;br/&gt;- exceptionFactory: ExceptionFactory&lt;br/&gt;- ZERO: Integer&lt;/p&gt;&lt;hr size=&quot;1&quot;/&gt;&lt;p style=&quot;margin:0 0 0 4px;line-height:1.6;&quot;&gt;+ deleteProductAdmin(Integer): void&lt;br/&gt;+ deleteProduct(Integer, Integer): void&lt;br/&gt;+ createProduct(Integer, CreateProductRequest): Integer&lt;br/&gt;+ getProductsLikeStatus(Integer, GetProductsLikeStatusRequest): GetProductsLikeStatusResponse&lt;br/&gt;+ changeProductLikeStatus(Integer, Integer): void&lt;br/&gt;+ updateProduct(Integer, UpdateProductRequest): void&lt;/p&gt;" style="verticalAlign=top;align=left;overflow=fill;fontSize=14;fontFamily=Helvetica;html=1;rounded=0;shadow=0;comic=0;labelBackgroundColor=none;strokeWidth=1;" parent="1" vertex="1">
          <mxGeometry x="855" y="4670" width="647" height="354" as="geometry" />
        </mxCell>
        <mxCell id="node25" value="&lt;p style=&quot;margin:0px;margin-top:4px;text-align:center;&quot;&gt;&lt;i&gt;&amp;lt;&amp;lt;interface&amp;gt;&amp;gt;&lt;/i&gt;&lt;br/&gt;&lt;b&gt;ProductProjection&lt;/b&gt;&lt;/p&gt;&lt;hr size=&quot;1&quot;/&gt;&lt;p style=&quot;margin:0 0 0 4px;line-height:1.6;&quot;&gt;+ getProductId(): Integer&lt;br/&gt;+ getTitle(): String&lt;br/&gt;+ getPrice(): Double&lt;br/&gt;+ getPopularity(): Integer&lt;/p&gt;" style="verticalAlign=top;align=left;overflow=fill;fontSize=14;fontFamily=Helvetica;html=1;rounded=0;shadow=0;comic=0;labelBackgroundColor=none;strokeWidth=1;" parent="1" vertex="1">
          <mxGeometry x="1023" y="2823" width="191" height="169" as="geometry" />
        </mxCell>
        <mxCell id="node11" value="&lt;p style=&quot;margin:0px;margin-top:4px;text-align:center;&quot;&gt;&lt;i&gt;&amp;lt;&amp;lt;interface&amp;gt;&amp;gt;&lt;/i&gt;&lt;br/&gt;&lt;b&gt;ProductPublicService&lt;/b&gt;&lt;/p&gt;&lt;hr size=&quot;1&quot;/&gt;" style="verticalAlign=top;align=left;overflow=fill;fontSize=14;fontFamily=Helvetica;html=1;rounded=0;shadow=0;comic=0;labelBackgroundColor=none;strokeWidth=1;" parent="1" vertex="1">
          <mxGeometry x="2232" y="4383" width="216" height="35" as="geometry" />
        </mxCell>
        <mxCell id="node3" value="&lt;p style=&quot;margin:0px;margin-top:4px;text-align:center;&quot;&gt;&lt;i&gt;&amp;lt;&amp;lt;interface&amp;gt;&amp;gt;&lt;/i&gt;&lt;br/&gt;&lt;b&gt;ProductRepository&lt;/b&gt;&lt;/p&gt;&lt;hr size=&quot;1&quot;/&gt;&lt;p style=&quot;margin:0 0 0 4px;line-height:1.6;&quot;&gt;+ findAllProd(Pageable): Page&amp;lt;ProductProjection&amp;gt;&lt;br/&gt;+ findAllRandom(Pageable): Page&amp;lt;ProductProjection&amp;gt;&lt;br/&gt;+ findAllByCategoryIdIn(List&amp;lt;Integer&amp;gt;, Pageable): Page&amp;lt;ProductProjection&amp;gt;&lt;br/&gt;+ findAllRandomByCategoryIdIn(List&amp;lt;Integer&amp;gt;, Pageable): Page&amp;lt;ProductProjection&amp;gt;&lt;br/&gt;+ findAllByProductIdIn(List&amp;lt;Integer&amp;gt;): Optional&amp;lt;List&amp;lt;Product&amp;gt;&amp;gt;&lt;br/&gt;+ findAllByUserId(Integer, Pageable): Page&amp;lt;ProductProjection&amp;gt;&lt;/p&gt;" style="verticalAlign=top;align=left;overflow=fill;fontSize=14;fontFamily=Helvetica;html=1;rounded=0;shadow=0;comic=0;labelBackgroundColor=none;strokeWidth=1;" parent="1" vertex="1">
          <mxGeometry x="377" y="4048" width="558" height="183" as="geometry" />
        </mxCell>
        <mxCell id="node4" value="&lt;p style=&quot;margin:0px;margin-top:4px;text-align:center;&quot;&gt;&lt;i&gt;&amp;lt;&amp;lt;interface&amp;gt;&amp;gt;&lt;/i&gt;&lt;br&gt;&lt;b&gt;ProductService&lt;/b&gt;&lt;/p&gt;&lt;hr size=&quot;1&quot;&gt;&lt;p style=&quot;margin:0 0 0 4px;line-height:1.6;&quot;&gt;+ deleteProduct(Integer, Integer): void&lt;br&gt;+ updateProduct(Integer, UpdateProductRequest): void&lt;br&gt;+ deleteProductAdmin(Integer): void&lt;br&gt;+ getRecommendedProducts(Integer, Integer, String): ResponseEntity&amp;lt;GetProductsResponse&amp;gt;&lt;br&gt;+ getLikedProductsByUser(Integer, Integer, Integer, String): ResponseEntity&amp;lt;GetProductsResponse&amp;gt;&lt;br&gt;+ createProduct(Integer, CreateProductRequest): ResponseEntity&amp;lt;Integer&amp;gt;&lt;br&gt;+ getProductsByUser(Integer, Integer, Integer, String): ResponseEntity&amp;lt;GetProductsResponse&amp;gt;&lt;br&gt;+ getProductsByCategory(Integer, Integer, String, GetProductsByCategoryRequest): ResponseEntity&amp;lt;GetProductsByCategoryResponse&amp;gt;&lt;br&gt;+ getProductsLikeStatus(Integer, GetProductsLikeStatusRequest): ResponseEntity&amp;lt;GetProductsLikeStatusResponse&amp;gt;&lt;br&gt;+ getProductsByIds(GetProductsByIdsRequest): ResponseEntity&amp;lt;GetProductsByIdsResponse&amp;gt;&lt;br&gt;+ changeProductLikeStatus(Integer, Integer): void&lt;br&gt;+ getProductById(Integer): ResponseEntity&amp;lt;ProductDTO&amp;gt;&lt;/p&gt;" style="verticalAlign=top;align=left;overflow=fill;fontSize=14;fontFamily=Helvetica;html=1;rounded=0;shadow=0;comic=0;labelBackgroundColor=none;strokeWidth=1;" parent="1" vertex="1">
          <mxGeometry x="1830" y="3690" width="866" height="327" as="geometry" />
        </mxCell>
        <mxCell id="node35" value="&lt;p style=&quot;margin:0px;margin-top:4px;text-align:center;&quot;&gt;&lt;i&gt;&amp;lt;&amp;lt;enumeration&amp;gt;&amp;gt;&lt;/i&gt;&lt;br/&gt;&lt;b&gt;ProductSortCriteria&lt;/b&gt;&lt;/p&gt;&lt;hr size=&quot;1&quot;/&gt;&lt;p style=&quot;margin:0 0 0 4px;line-height:1.6;&quot;&gt;+ NEWEST: &lt;br/&gt;+ POPULARITY: &lt;br/&gt;+ RANDOM: &lt;/p&gt;&lt;hr size=&quot;1&quot;/&gt;&lt;p style=&quot;margin:0 0 0 4px;line-height:1.6;&quot;&gt;+ valueOf(String): ProductSortCriteria&lt;br/&gt;+ values(): ProductSortCriteria[]&lt;/p&gt;" style="verticalAlign=top;align=left;overflow=fill;fontSize=14;fontFamily=Helvetica;html=1;rounded=0;shadow=0;comic=0;labelBackgroundColor=none;strokeWidth=1;" parent="1" vertex="1">
          <mxGeometry x="599" y="3700" width="254" height="143" as="geometry" />
        </mxCell>
        <mxCell id="node32" value="&lt;p style=&quot;margin:0px;margin-top:4px;text-align:center;&quot;&gt;&lt;b&gt;ProductSpecification&lt;/b&gt;&lt;/p&gt;&lt;hr size=&quot;1&quot;/&gt;&lt;p style=&quot;margin:0 0 0 4px;line-height:1.6;&quot;&gt;- product: Product&lt;br/&gt;- key: String&lt;br/&gt;- value: String&lt;br/&gt;- specificationId: Integer&lt;/p&gt;&lt;hr size=&quot;1&quot;/&gt;&lt;p style=&quot;margin:0 0 0 4px;line-height:1.6;&quot;&gt;# canEqual(Object): boolean&lt;br/&gt;+ equals(Object): boolean&lt;br/&gt;+ getKey(): String&lt;br/&gt;+ getProduct(): Product&lt;br/&gt;+ toString(): String&lt;br/&gt;+ setProduct(Product): void&lt;br/&gt;+ hashCode(): int&lt;br/&gt;+ getValue(): String&lt;br/&gt;+ setSpecificationId(Integer): void&lt;br/&gt;+ builder(): ProductSpecificationBuilder&lt;br/&gt;+ setValue(String): void&lt;br/&gt;+ getSpecificationId(): Integer&lt;br/&gt;+ setKey(String): void&lt;/p&gt;" style="verticalAlign=top;align=left;overflow=fill;fontSize=14;fontFamily=Helvetica;html=1;rounded=0;shadow=0;comic=0;labelBackgroundColor=none;strokeWidth=1;" parent="1" vertex="1">
          <mxGeometry x="1095" y="2278" width="274" height="146" as="geometry" />
        </mxCell>
        <mxCell id="node22" value="&lt;p style=&quot;margin:0px;margin-top:4px;text-align:center;&quot;&gt;&lt;b&gt;ProductSpecificationDTO&lt;/b&gt;&lt;/p&gt;&lt;hr size=&quot;1&quot;/&gt;&lt;p style=&quot;margin:0 0 0 4px;line-height:1.6;&quot;&gt;- value: String&lt;br/&gt;- key: String&lt;br/&gt;- specificationId: Integer&lt;/p&gt;&lt;hr size=&quot;1&quot;/&gt;&lt;p style=&quot;margin:0 0 0 4px;line-height:1.6;&quot;&gt;+ builder(): ProductSpecificationDTOBuilder&lt;br/&gt;+ setValue(String): void&lt;br/&gt;+ toString(): String&lt;br/&gt;+ getValue(): String&lt;br/&gt;+ getSpecificationId(): Integer&lt;br/&gt;+ setSpecificationId(Integer): void&lt;br/&gt;+ hashCode(): int&lt;br/&gt;+ equals(Object): boolean&lt;br/&gt;+ getKey(): String&lt;br/&gt;+ setKey(String): void&lt;br/&gt;# canEqual(Object): boolean&lt;/p&gt;" style="verticalAlign=top;align=left;overflow=fill;fontSize=14;fontFamily=Helvetica;html=1;rounded=0;shadow=0;comic=0;labelBackgroundColor=none;strokeWidth=1;" parent="1" vertex="1">
          <mxGeometry x="224" y="2688" width="280" height="120" as="geometry" />
        </mxCell>
        <mxCell id="node23" value="&lt;p style=&quot;margin:0px;margin-top:4px;text-align:center;&quot;&gt;&lt;b&gt;ProductSpecificationMapper&lt;/b&gt;&lt;/p&gt;&lt;hr size=&quot;1&quot;/&gt;&lt;p style=&quot;margin:0 0 0 4px;line-height:1.6;&quot;&gt;~ prodSpecDtoToProdSpec(ProductSpecificationDTO): ProductSpecification&lt;br/&gt;~ prodSpecToProdSpecDto(ProductSpecification): ProductSpecificationDTO&lt;/p&gt;" style="verticalAlign=top;align=left;overflow=fill;fontSize=14;fontFamily=Helvetica;html=1;rounded=0;shadow=0;comic=0;labelBackgroundColor=none;strokeWidth=1;" parent="1" vertex="1">
          <mxGeometry x="1476" y="4324" width="504" height="94" as="geometry" />
        </mxCell>
        <mxCell id="node18" value="&lt;p style=&quot;margin:0px;margin-top:4px;text-align:center;&quot;&gt;&lt;i&gt;&amp;lt;&amp;lt;interface&amp;gt;&amp;gt;&lt;/i&gt;&lt;br/&gt;&lt;b&gt;ProductSpecificationRepository&lt;/b&gt;&lt;/p&gt;&lt;hr size=&quot;1&quot;/&gt;" style="verticalAlign=top;align=left;overflow=fill;fontSize=14;fontFamily=Helvetica;html=1;rounded=0;shadow=0;comic=0;labelBackgroundColor=none;strokeWidth=1;" parent="1" vertex="1">
          <mxGeometry x="1213" y="3786" width="292" height="35" as="geometry" />
        </mxCell>
        <mxCell id="node20" value="&lt;p style=&quot;margin:0px;margin-top:4px;text-align:center;&quot;&gt;&lt;b&gt;SecurityConfiguration&lt;/b&gt;&lt;/p&gt;&lt;hr size=&quot;1&quot;/&gt;&lt;p style=&quot;margin:0 0 0 4px;line-height:1.6;&quot;&gt;- WHITE_LIST_URL: String[]&lt;/p&gt;&lt;hr size=&quot;1&quot;/&gt;&lt;p style=&quot;margin:0 0 0 4px;line-height:1.6;&quot;&gt;+ securityFilterChain(HttpSecurity): SecurityFilterChain&lt;/p&gt;" style="verticalAlign=top;align=left;overflow=fill;fontSize=14;fontFamily=Helvetica;html=1;rounded=0;shadow=0;comic=0;labelBackgroundColor=none;strokeWidth=1;" parent="1" vertex="1">
          <mxGeometry x="540" y="3875" width="373" height="97" as="geometry" />
        </mxCell>
        <mxCell id="node19" value="&lt;p style=&quot;margin:0px;margin-top:4px;text-align:center;&quot;&gt;&lt;b&gt;UpdateProductRequest&lt;/b&gt;&lt;/p&gt;&lt;hr size=&quot;1&quot;/&gt;&lt;p style=&quot;margin:0 0 0 4px;line-height:1.6;&quot;&gt;- description: String&lt;br/&gt;~ productSpecifications: Map&amp;lt;String, String&amp;gt;&lt;br/&gt;~ productImages: List&amp;lt;String&amp;gt;&lt;br/&gt;- price: Double&lt;br/&gt;- productId: Integer&lt;br/&gt;- title: String&lt;br/&gt;- categoryId: Integer&lt;/p&gt;&lt;hr size=&quot;1&quot;/&gt;&lt;p style=&quot;margin:0 0 0 4px;line-height:1.6;&quot;&gt;+ getCategoryId(): Integer&lt;br/&gt;+ getProductImages(): List&amp;lt;String&amp;gt;&lt;br/&gt;+ setDescription(String): void&lt;br/&gt;+ setProductImages(List&amp;lt;String&amp;gt;): void&lt;br/&gt;+ setTitle(String): void&lt;br/&gt;+ setCategoryId(Integer): void&lt;br/&gt;+ setProductId(Integer): void&lt;br/&gt;+ getTitle(): String&lt;br/&gt;+ toString(): String&lt;br/&gt;+ getProductId(): Integer&lt;br/&gt;+ getProductSpecifications(): Map&amp;lt;String, String&amp;gt;&lt;br/&gt;+ setProductSpecifications(Map&amp;lt;String, String&amp;gt;): void&lt;br/&gt;+ hashCode(): int&lt;br/&gt;+ getDescription(): String&lt;br/&gt;+ builder(): UpdateProductRequestBuilder&lt;br/&gt;# canEqual(Object): boolean&lt;br/&gt;+ setPrice(Double): void&lt;br/&gt;+ getPrice(): Double&lt;br/&gt;+ equals(Object): boolean&lt;/p&gt;" style="verticalAlign=top;align=left;overflow=fill;fontSize=14;fontFamily=Helvetica;html=1;rounded=0;shadow=0;comic=0;labelBackgroundColor=none;strokeWidth=1;" parent="1" vertex="1">
          <mxGeometry x="1795" y="2890" width="373" height="201" as="geometry" />
        </mxCell>
        <mxCell id="edge4" value="" style="html=1;rounded=1;edgeStyle=orthogonalEdgeStyle;dashed=0;startArrow=diamondThinstartSize=12;endArrow=openThin;endSize=12;strokeColor=#595959;exitX=0.500;exitY=0.000;exitDx=0;exitDy=0;entryX=0.628;entryY=1.000;entryDx=0;entryDy=0;" parent="1" source="node21" target="node29" edge="1">
          <mxGeometry width="50" height="50" relative="1" as="geometry">
            <Array as="points">
              <mxPoint x="2460" y="2753" />
              <mxPoint x="528" y="2753" />
            </Array>
          </mxGeometry>
        </mxCell>
        <mxCell id="label24" value="" style="edgeLabel;resizable=0;html=1;align=left;verticalAlign=top;strokeColor=default;" parent="edge4" vertex="1" connectable="0">
          <mxGeometry x="517" y="2743" as="geometry" />
        </mxCell>
        <mxCell id="label28" value="*" style="edgeLabel;resizable=0;html=1;align=left;verticalAlign=top;strokeColor=default;" parent="edge4" vertex="1" connectable="0">
          <mxGeometry x="519" y="2569" as="geometry" />
        </mxCell>
        <mxCell id="label29" value="products" style="edgeLabel;resizable=0;html=1;align=left;verticalAlign=top;strokeColor=default;" parent="edge4" vertex="1" connectable="0">
          <mxGeometry x="528" y="2569" as="geometry" />
        </mxCell>
        <mxCell id="edge11" value="" style="html=1;rounded=1;edgeStyle=orthogonalEdgeStyle;dashed=0;startArrow=diamondThinstartSize=12;endArrow=openThin;endSize=12;strokeColor=#595959;exitX=0.500;exitY=0.000;exitDx=0;exitDy=0;entryX=0.628;entryY=1.000;entryDx=0;entryDy=0;" parent="1" source="node36" target="node29" edge="1">
          <mxGeometry width="50" height="50" relative="1" as="geometry">
            <Array as="points">
              <mxPoint x="1640" y="3133" />
              <mxPoint x="1589" y="3133" />
              <mxPoint x="1589" y="2753" />
              <mxPoint x="528" y="2753" />
            </Array>
          </mxGeometry>
        </mxCell>
        <mxCell id="label66" value="" style="edgeLabel;resizable=0;html=1;align=left;verticalAlign=top;strokeColor=default;" parent="edge11" vertex="1" connectable="0">
          <mxGeometry x="1629" y="3135" as="geometry" />
        </mxCell>
        <mxCell id="label70" value="*" style="edgeLabel;resizable=0;html=1;align=left;verticalAlign=top;strokeColor=default;" parent="edge11" vertex="1" connectable="0">
          <mxGeometry x="519" y="2573" as="geometry" />
        </mxCell>
        <mxCell id="label71" value="products" style="edgeLabel;resizable=0;html=1;align=left;verticalAlign=top;strokeColor=default;" parent="edge11" vertex="1" connectable="0">
          <mxGeometry x="528" y="2559" as="geometry" />
        </mxCell>
        <mxCell id="edge8" value="" style="html=1;rounded=1;edgeStyle=orthogonalEdgeStyle;dashed=0;startArrow=diamondThinstartSize=12;endArrow=openThin;endSize=12;strokeColor=#595959;exitX=0.500;exitY=0.001;exitDx=0;exitDy=0;entryX=0.500;entryY=1.000;entryDx=0;entryDy=0;" parent="1" source="node8" target="node27" edge="1">
          <mxGeometry width="50" height="50" relative="1" as="geometry">
            <Array as="points" />
          </mxGeometry>
        </mxCell>
        <mxCell id="label48" value="" style="edgeLabel;resizable=0;html=1;align=left;verticalAlign=top;strokeColor=default;" parent="edge8" vertex="1" connectable="0">
          <mxGeometry x="274" y="3623" as="geometry" />
        </mxCell>
        <mxCell id="label52" value="*" style="edgeLabel;resizable=0;html=1;align=left;verticalAlign=top;strokeColor=default;" parent="edge8" vertex="1" connectable="0">
          <mxGeometry x="276" y="3571" as="geometry" />
        </mxCell>
        <mxCell id="label53" value="productsLikeStatus" style="edgeLabel;resizable=0;html=1;align=left;verticalAlign=top;strokeColor=default;" parent="edge8" vertex="1" connectable="0">
          <mxGeometry x="285" y="3571" as="geometry" />
        </mxCell>
        <mxCell id="edge5" value="" style="html=1;rounded=1;edgeStyle=orthogonalEdgeStyle;dashed=0;startArrow=diamondThinstartSize=12;endArrow=openThin;endSize=12;strokeColor=#595959;exitX=0.500;exitY=0.000;exitDx=0;exitDy=0;entryX=0.628;entryY=1.000;entryDx=0;entryDy=0;" parent="1" source="node6" target="node29" edge="1">
          <mxGeometry width="50" height="50" relative="1" as="geometry">
            <Array as="points">
              <mxPoint x="1213" y="3133" />
              <mxPoint x="1589" y="3133" />
              <mxPoint x="1589" y="2753" />
              <mxPoint x="528" y="2753" />
            </Array>
          </mxGeometry>
        </mxCell>
        <mxCell id="label30" value="" style="edgeLabel;resizable=0;html=1;align=left;verticalAlign=top;strokeColor=default;" parent="edge5" vertex="1" connectable="0">
          <mxGeometry x="1202" y="3142" as="geometry" />
        </mxCell>
        <mxCell id="label34" value="*" style="edgeLabel;resizable=0;html=1;align=left;verticalAlign=top;strokeColor=default;" parent="edge5" vertex="1" connectable="0">
          <mxGeometry x="519" y="2559" as="geometry" />
        </mxCell>
        <mxCell id="label35" value="products" style="edgeLabel;resizable=0;html=1;align=left;verticalAlign=top;strokeColor=default;" parent="edge5" vertex="1" connectable="0">
          <mxGeometry x="528" y="2573" as="geometry" />
        </mxCell>
        <mxCell id="edge1" value="" style="html=1;rounded=1;edgeStyle=orthogonalEdgeStyle;dashed=1;startArrow=none;endArrow=block;endSize=12;strokeColor=#008200;exitX=0.000;exitY=0.500;exitDx=0;exitDy=0;entryX=0.500;entryY=0.000;entryDx=0;entryDy=0;" parent="1" source="node13" target="node2" edge="1">
          <mxGeometry width="50" height="50" relative="1" as="geometry">
            <Array as="points">
              <mxPoint x="34" y="4787" />
              <mxPoint x="34" y="4031" />
              <mxPoint x="1430" y="4031" />
            </Array>
          </mxGeometry>
        </mxCell>
        <mxCell id="edge21" value="" style="html=1;rounded=1;edgeStyle=orthogonalEdgeStyle;dashed=0;startArrow=diamondThinstartSize=12;endArrow=openThin;endSize=12;strokeColor=#595959;exitX=1.000;exitY=0.500;exitDx=0;exitDy=0;entryX=0.000;entryY=0.500;entryDx=0;entryDy=0;" parent="1" source="node13" target="node1" edge="1">
          <mxGeometry width="50" height="50" relative="1" as="geometry">
            <Array as="points">
              <mxPoint x="802" y="4787" />
              <mxPoint x="802" y="5018" />
              <mxPoint x="49" y="5018" />
              <mxPoint x="49" y="4415" />
            </Array>
          </mxGeometry>
        </mxCell>
        <mxCell id="label126" value="" style="edgeLabel;resizable=0;html=1;align=left;verticalAlign=top;strokeColor=default;" parent="edge21" vertex="1" connectable="0">
          <mxGeometry x="759" y="4772" as="geometry" />
        </mxCell>
        <mxCell id="label130" value="" style="edgeLabel;resizable=0;html=1;align=left;verticalAlign=top;strokeColor=default;" parent="edge21" vertex="1" connectable="0">
          <mxGeometry x="54" y="4907" as="geometry" />
        </mxCell>
        <mxCell id="label131" value="productImageRepository" style="edgeLabel;resizable=0;html=1;align=left;verticalAlign=top;strokeColor=default;" parent="edge21" vertex="1" connectable="0">
          <mxGeometry x="-7" y="4638" as="geometry" />
        </mxCell>
        <mxCell id="edge12" value="" style="html=1;rounded=1;edgeStyle=orthogonalEdgeStyle;dashed=0;startArrow=diamondThinstartSize=12;endArrow=openThin;endSize=12;strokeColor=#595959;exitX=1.000;exitY=0.185;exitDx=0;exitDy=0;entryX=0.500;entryY=1.000;entryDx=0;entryDy=0;" parent="1" source="node13" target="node5" edge="1">
          <mxGeometry width="50" height="50" relative="1" as="geometry">
            <Array as="points">
              <mxPoint x="802" y="4653" />
              <mxPoint x="802" y="4653" />
              <mxPoint x="1031" y="4653" />
            </Array>
          </mxGeometry>
        </mxCell>
        <mxCell id="label72" value="" style="edgeLabel;resizable=0;html=1;align=left;verticalAlign=top;strokeColor=default;" parent="edge12" vertex="1" connectable="0">
          <mxGeometry x="805" y="4648" as="geometry" />
        </mxCell>
        <mxCell id="label76" value="" style="edgeLabel;resizable=0;html=1;align=left;verticalAlign=top;strokeColor=default;" parent="edge12" vertex="1" connectable="0">
          <mxGeometry x="1020" y="4563" as="geometry" />
        </mxCell>
        <mxCell id="label77" value="productLikeRepository" style="edgeLabel;resizable=0;html=1;align=left;verticalAlign=top;strokeColor=default;" parent="edge12" vertex="1" connectable="0">
          <mxGeometry x="1031" y="4559" as="geometry" />
        </mxCell>
        <mxCell id="edge16" value="" style="html=1;rounded=1;edgeStyle=orthogonalEdgeStyle;dashed=0;startArrow=diamondThinstartSize=12;endArrow=openThin;endSize=12;strokeColor=#595959;exitX=0.500;exitY=0.000;exitDx=0;exitDy=0;entryX=0.500;entryY=1.000;entryDx=0;entryDy=0;" parent="1" source="node13" target="node3" edge="1">
          <mxGeometry width="50" height="50" relative="1" as="geometry">
            <Array as="points">
              <mxPoint x="408" y="4547" />
              <mxPoint x="656" y="4547" />
            </Array>
          </mxGeometry>
        </mxCell>
        <mxCell id="label96" value="" style="edgeLabel;resizable=0;html=1;align=left;verticalAlign=top;strokeColor=default;" parent="edge16" vertex="1" connectable="0">
          <mxGeometry x="614" y="4537" as="geometry" />
        </mxCell>
        <mxCell id="label100" value="" style="edgeLabel;resizable=0;html=1;align=left;verticalAlign=top;strokeColor=default;" parent="edge16" vertex="1" connectable="0">
          <mxGeometry x="645" y="4236" as="geometry" />
        </mxCell>
        <mxCell id="label101" value="productRepository" style="edgeLabel;resizable=0;html=1;align=left;verticalAlign=top;strokeColor=default;" parent="edge16" vertex="1" connectable="0">
          <mxGeometry x="656" y="4236" as="geometry" />
        </mxCell>
        <mxCell id="edge10" value="" style="html=1;rounded=1;edgeStyle=orthogonalEdgeStyle;dashed=0;startArrow=diamondThinstartSize=12;endArrow=openThin;endSize=12;strokeColor=#595959;exitX=1.000;exitY=0.432;exitDx=0;exitDy=0;entryX=0.000;entryY=0.500;entryDx=0;entryDy=0;" parent="1" source="node15" target="node14" edge="1">
          <mxGeometry width="50" height="50" relative="1" as="geometry">
            <Array as="points" />
          </mxGeometry>
        </mxCell>
        <mxCell id="label60" value="" style="edgeLabel;resizable=0;html=1;align=left;verticalAlign=top;strokeColor=default;" parent="edge10" vertex="1" connectable="0">
          <mxGeometry x="532" y="3035" as="geometry" />
        </mxCell>
        <mxCell id="label64" value="*" style="edgeLabel;resizable=0;html=1;align=left;verticalAlign=top;strokeColor=default;" parent="edge10" vertex="1" connectable="0">
          <mxGeometry x="724" y="3036" as="geometry" />
        </mxCell>
        <mxCell id="label65" value="productImages" style="edgeLabel;resizable=0;html=1;align=left;verticalAlign=top;strokeColor=default;" parent="edge10" vertex="1" connectable="0">
          <mxGeometry x="646" y="3084" as="geometry" />
        </mxCell>
        <mxCell id="edge20" value="" style="html=1;rounded=1;edgeStyle=orthogonalEdgeStyle;dashed=0;startArrow=diamondThinstartSize=12;endArrow=openThin;endSize=12;strokeColor=#595959;exitX=0.235;exitY=0.000;exitDx=0;exitDy=0;entryX=0.500;entryY=0.000;entryDx=0;entryDy=0;" parent="1" source="node15" target="node32" edge="1">
          <mxGeometry width="50" height="50" relative="1" as="geometry">
            <Array as="points">
              <mxPoint x="206" y="2261" />
              <mxPoint x="1232" y="2261" />
            </Array>
          </mxGeometry>
        </mxCell>
        <mxCell id="label120" value="" style="edgeLabel;resizable=0;html=1;align=left;verticalAlign=top;strokeColor=default;" parent="edge20" vertex="1" connectable="0">
          <mxGeometry x="206" y="2908" as="geometry" />
        </mxCell>
        <mxCell id="label124" value="*" style="edgeLabel;resizable=0;html=1;align=left;verticalAlign=top;strokeColor=default;" parent="edge20" vertex="1" connectable="0">
          <mxGeometry x="1223" y="2259" as="geometry" />
        </mxCell>
        <mxCell id="label125" value="productSpecifications" style="edgeLabel;resizable=0;html=1;align=left;verticalAlign=top;strokeColor=default;" parent="edge20" vertex="1" connectable="0">
          <mxGeometry x="90" y="2233" as="geometry" />
        </mxCell>
        <mxCell id="edge22" value="" style="html=1;rounded=1;edgeStyle=orthogonalEdgeStyle;dashed=0;startArrow=diamondThinstartSize=12;endArrow=openThin;endSize=12;strokeColor=#595959;exitX=0.000;exitY=0.284;exitDx=0;exitDy=0;entryX=0.500;entryY=1.000;entryDx=0;entryDy=0;" parent="1" source="node17" target="node2" edge="1">
          <mxGeometry width="50" height="50" relative="1" as="geometry">
            <Array as="points">
              <mxPoint x="1431" y="4638" />
            </Array>
          </mxGeometry>
        </mxCell>
        <mxCell id="label132" value="" style="edgeLabel;resizable=0;html=1;align=left;verticalAlign=top;strokeColor=default;" parent="edge22" vertex="1" connectable="0">
          <mxGeometry x="1591" y="4633" as="geometry" />
        </mxCell>
        <mxCell id="label136" value="" style="edgeLabel;resizable=0;html=1;align=left;verticalAlign=top;strokeColor=default;" parent="edge22" vertex="1" connectable="0">
          <mxGeometry x="1435" y="4367" as="geometry" />
        </mxCell>
        <mxCell id="label137" value="getProductsService" style="edgeLabel;resizable=0;html=1;align=left;verticalAlign=top;strokeColor=default;" parent="edge22" vertex="1" connectable="0">
          <mxGeometry x="1389" y="4298" as="geometry" />
        </mxCell>
        <mxCell id="edge6" value="" style="html=1;rounded=1;edgeStyle=orthogonalEdgeStyle;dashed=0;startArrow=diamondThinstartSize=12;endArrow=openThin;endSize=12;strokeColor=#595959;exitX=0.000;exitY=0.058;exitDx=0;exitDy=0;entryX=0.523;entryY=1.000;entryDx=0;entryDy=0;" parent="1" source="node17" target="node30" edge="1">
          <mxGeometry width="50" height="50" relative="1" as="geometry">
            <Array as="points">
              <mxPoint x="1458" y="4547" />
              <mxPoint x="1458" y="4279" />
              <mxPoint x="1813" y="4279" />
            </Array>
          </mxGeometry>
        </mxCell>
        <mxCell id="label36" value="" style="edgeLabel;resizable=0;html=1;align=left;verticalAlign=top;strokeColor=default;" parent="edge6" vertex="1" connectable="0">
          <mxGeometry x="1453" y="4377" as="geometry" />
        </mxCell>
        <mxCell id="label40" value="" style="edgeLabel;resizable=0;html=1;align=left;verticalAlign=top;strokeColor=default;" parent="edge6" vertex="1" connectable="0">
          <mxGeometry x="1802" y="3593" as="geometry" />
        </mxCell>
        <mxCell id="label41" value="productOperationsService" style="edgeLabel;resizable=0;html=1;align=left;verticalAlign=top;strokeColor=default;" parent="edge6" vertex="1" connectable="0">
          <mxGeometry x="1813" y="3593" as="geometry" />
        </mxCell>
        <mxCell id="edge0" value="" style="html=1;rounded=1;edgeStyle=orthogonalEdgeStyle;dashed=1;startArrow=none;endArrow=block;endSize=12;strokeColor=#008200;exitX=0.511;exitY=0.000;exitDx=0;exitDy=0;entryX=0.174;entryY=1.000;entryDx=0;entryDy=0;" parent="1" source="node17" target="node4" edge="1">
          <mxGeometry width="50" height="50" relative="1" as="geometry">
            <Array as="points" />
          </mxGeometry>
        </mxCell>
        <mxCell id="edge14" value="" style="html=1;rounded=1;edgeStyle=orthogonalEdgeStyle;dashed=0;startArrow=diamondThinstartSize=12;endArrow=openThin;endSize=12;strokeColor=#595959;exitX=1.000;exitY=0.589;exitDx=0;exitDy=0;entryX=0.500;entryY=0.000;entryDx=0;entryDy=0;" parent="1" source="node29" target="node34" edge="1">
          <mxGeometry width="50" height="50" relative="1" as="geometry">
            <Array as="points">
              <mxPoint x="1346" y="2442" />
            </Array>
          </mxGeometry>
        </mxCell>
        <mxCell id="label84" value="" style="edgeLabel;resizable=0;html=1;align=left;verticalAlign=top;strokeColor=default;" parent="edge14" vertex="1" connectable="0">
          <mxGeometry x="1350" y="2620" as="geometry" />
        </mxCell>
        <mxCell id="label88" value="*" style="edgeLabel;resizable=0;html=1;align=left;verticalAlign=top;strokeColor=default;" parent="edge14" vertex="1" connectable="0">
          <mxGeometry x="1346" y="2641" as="geometry" />
        </mxCell>
        <mxCell id="label89" value="productImages" style="edgeLabel;resizable=0;html=1;align=left;verticalAlign=top;strokeColor=default;" parent="edge14" vertex="1" connectable="0">
          <mxGeometry x="1259" y="2641" as="geometry" />
        </mxCell>
        <mxCell id="edge17" value="" style="html=1;rounded=1;edgeStyle=orthogonalEdgeStyle;dashed=0;startArrow=diamondThinstartSize=12;endArrow=openThin;endSize=12;strokeColor=#595959;exitX=0.234;exitY=1.000;exitDx=0;exitDy=0;entryX=0.500;entryY=0.000;entryDx=0;entryDy=0;" parent="1" source="node29" target="node22" edge="1">
          <mxGeometry width="50" height="50" relative="1" as="geometry">
            <Array as="points" />
          </mxGeometry>
        </mxCell>
        <mxCell id="label102" value="" style="edgeLabel;resizable=0;html=1;align=left;verticalAlign=top;strokeColor=default;" parent="edge17" vertex="1" connectable="0">
          <mxGeometry x="364" y="2565" as="geometry" />
        </mxCell>
        <mxCell id="label106" value="*" style="edgeLabel;resizable=0;html=1;align=left;verticalAlign=top;strokeColor=default;" parent="edge17" vertex="1" connectable="0">
          <mxGeometry x="364" y="2663" as="geometry" />
        </mxCell>
        <mxCell id="label107" value="productSpecifications" style="edgeLabel;resizable=0;html=1;align=left;verticalAlign=top;strokeColor=default;" parent="edge17" vertex="1" connectable="0">
          <mxGeometry x="242" y="2663" as="geometry" />
        </mxCell>
        <mxCell id="edge9" value="" style="html=1;rounded=1;edgeStyle=orthogonalEdgeStyle;dashed=0;startArrow=diamondThinstartSize=12;endArrow=openThin;endSize=12;strokeColor=#595959;exitX=0.500;exitY=0.000;exitDx=0;exitDy=0;entryX=1.000;entryY=0.500;entryDx=0;entryDy=0;" parent="1" source="node14" target="node15" edge="1">
          <mxGeometry width="50" height="50" relative="1" as="geometry">
            <Array as="points">
              <mxPoint x="850" y="2977" />
              <mxPoint x="720" y="2977" />
              <mxPoint x="720" y="3069" />
            </Array>
          </mxGeometry>
        </mxCell>
        <mxCell id="label54" value="" style="edgeLabel;resizable=0;html=1;align=left;verticalAlign=top;strokeColor=default;" parent="edge9" vertex="1" connectable="0">
          <mxGeometry x="850" y="2976" as="geometry" />
        </mxCell>
        <mxCell id="label58" value="" style="edgeLabel;resizable=0;html=1;align=left;verticalAlign=top;strokeColor=default;" parent="edge9" vertex="1" connectable="0">
          <mxGeometry x="532" y="3054" as="geometry" />
        </mxCell>
        <mxCell id="label59" value="product" style="edgeLabel;resizable=0;html=1;align=left;verticalAlign=top;strokeColor=default;" parent="edge9" vertex="1" connectable="0">
          <mxGeometry x="686" y="2984" as="geometry" />
        </mxCell>
        <mxCell id="edge19" value="" style="html=1;rounded=1;edgeStyle=orthogonalEdgeStyle;dashed=0;startArrow=diamondThinstartSize=12;endArrow=openThin;endSize=12;strokeColor=#595959;exitX=0.000;exitY=0.500;exitDx=0;exitDy=0;entryX=0.000;entryY=0.500;entryDx=0;entryDy=0;" parent="1" source="node31" target="node1" edge="1">
          <mxGeometry width="50" height="50" relative="1" as="geometry">
            <Array as="points">
              <mxPoint x="802" y="4847" />
              <mxPoint x="802" y="5018" />
              <mxPoint x="49" y="5018" />
              <mxPoint x="49" y="4415" />
            </Array>
          </mxGeometry>
        </mxCell>
        <mxCell id="label114" value="" style="edgeLabel;resizable=0;html=1;align=left;verticalAlign=top;strokeColor=default;" parent="edge19" vertex="1" connectable="0">
          <mxGeometry x="839" y="4843" as="geometry" />
        </mxCell>
        <mxCell id="label118" value="" style="edgeLabel;resizable=0;html=1;align=left;verticalAlign=top;strokeColor=default;" parent="edge19" vertex="1" connectable="0">
          <mxGeometry x="54" y="4555" as="geometry" />
        </mxCell>
        <mxCell id="label119" value="productImageRepository" style="edgeLabel;resizable=0;html=1;align=left;verticalAlign=top;strokeColor=default;" parent="edge19" vertex="1" connectable="0">
          <mxGeometry x="-20" y="5077" as="geometry" />
        </mxCell>
        <mxCell id="edge15" value="" style="html=1;rounded=1;edgeStyle=orthogonalEdgeStyle;dashed=0;startArrow=diamondThinstartSize=12;endArrow=openThin;endSize=12;strokeColor=#595959;exitX=0.000;exitY=0.021;exitDx=0;exitDy=0;entryX=0.500;entryY=1.000;entryDx=0;entryDy=0;" parent="1" source="node31" target="node5" edge="1">
          <mxGeometry width="50" height="50" relative="1" as="geometry">
            <Array as="points">
              <mxPoint x="802" y="4678" />
              <mxPoint x="802" y="4653" />
              <mxPoint x="1031" y="4653" />
            </Array>
          </mxGeometry>
        </mxCell>
        <mxCell id="label90" value="" style="edgeLabel;resizable=0;html=1;align=left;verticalAlign=top;strokeColor=default;" parent="edge15" vertex="1" connectable="0">
          <mxGeometry x="839" y="4718" as="geometry" />
        </mxCell>
        <mxCell id="label94" value="" style="edgeLabel;resizable=0;html=1;align=left;verticalAlign=top;strokeColor=default;" parent="edge15" vertex="1" connectable="0">
          <mxGeometry x="1020" y="4558" as="geometry" />
        </mxCell>
        <mxCell id="label95" value="productLikeRepository" style="edgeLabel;resizable=0;html=1;align=left;verticalAlign=top;strokeColor=default;" parent="edge15" vertex="1" connectable="0">
          <mxGeometry x="1031" y="4558" as="geometry" />
        </mxCell>
        <mxCell id="edge3" value="" style="html=1;rounded=1;edgeStyle=orthogonalEdgeStyle;dashed=1;startArrow=none;endArrow=block;endSize=12;strokeColor=#008200;exitX=0.782;exitY=0.000;exitDx=0;exitDy=0;entryX=0.500;entryY=1.000;entryDx=0;entryDy=0;" parent="1" source="node31" target="node30" edge="1">
          <mxGeometry width="50" height="50" relative="1" as="geometry">
            <Array as="points">
              <mxPoint x="1360" y="4249" />
              <mxPoint x="1798" y="4249" />
            </Array>
          </mxGeometry>
        </mxCell>
        <mxCell id="edge7" value="" style="html=1;rounded=1;edgeStyle=orthogonalEdgeStyle;dashed=0;startArrow=diamondThinstartSize=12;endArrow=openThin;endSize=12;strokeColor=#595959;exitX=0.500;exitY=0.000;exitDx=0;exitDy=0;entryX=0.500;entryY=1.000;entryDx=0;entryDy=0;" parent="1" source="node31" target="node3" edge="1">
          <mxGeometry width="50" height="50" relative="1" as="geometry">
            <Array as="points">
              <mxPoint x="1178" y="4547" />
              <mxPoint x="656" y="4547" />
            </Array>
          </mxGeometry>
        </mxCell>
        <mxCell id="label42" value="" style="edgeLabel;resizable=0;html=1;align=left;verticalAlign=top;strokeColor=default;" parent="edge7" vertex="1" connectable="0">
          <mxGeometry x="1167" y="4638" as="geometry" />
        </mxCell>
        <mxCell id="label46" value="" style="edgeLabel;resizable=0;html=1;align=left;verticalAlign=top;strokeColor=default;" parent="edge7" vertex="1" connectable="0">
          <mxGeometry x="645" y="4261" as="geometry" />
        </mxCell>
        <mxCell id="label47" value="productRepository" style="edgeLabel;resizable=0;html=1;align=left;verticalAlign=top;strokeColor=default;" parent="edge7" vertex="1" connectable="0">
          <mxGeometry x="656" y="4261" as="geometry" />
        </mxCell>
        <mxCell id="edge13" value="" style="html=1;rounded=1;edgeStyle=orthogonalEdgeStyle;dashed=0;startArrow=diamondThinstartSize=12;endArrow=openThin;endSize=12;strokeColor=#595959;exitX=1.000;exitY=0.771;exitDx=0;exitDy=0;entryX=0.538;entryY=0.001;entryDx=0;entryDy=0;" parent="1" source="node31" target="node18" edge="1">
          <mxGeometry width="50" height="50" relative="1" as="geometry">
            <Array as="points">
              <mxPoint x="2710" y="4943" />
              <mxPoint x="2710" y="3360" />
              <mxPoint x="1370" y="3360" />
            </Array>
          </mxGeometry>
        </mxCell>
        <mxCell id="label78" value="" style="edgeLabel;resizable=0;html=1;align=left;verticalAlign=top;strokeColor=default;" parent="edge13" vertex="1" connectable="0">
          <mxGeometry x="1665" y="4928" as="geometry" />
        </mxCell>
        <mxCell id="label82" value="" style="edgeLabel;resizable=0;html=1;align=left;verticalAlign=top;strokeColor=default;" parent="edge13" vertex="1" connectable="0">
          <mxGeometry x="1370" y="3761" as="geometry" />
        </mxCell>
        <mxCell id="label83" value="productSpecificationsRepository" style="edgeLabel;resizable=0;html=1;align=left;verticalAlign=top;strokeColor=default;" parent="edge13" vertex="1" connectable="0">
          <mxGeometry x="1189" y="3761" as="geometry" />
        </mxCell>
        <mxCell id="edge2" value="" style="html=1;rounded=1;edgeStyle=orthogonalEdgeStyle;dashed=0;startArrow=none;endArrow=block;endSize=12;strokeColor=#008200;exitX=0.064;exitY=0.002;exitDx=0;exitDy=0;entryX=0.500;entryY=1.000;entryDx=0;entryDy=0;" parent="1" source="node11" target="node4" edge="1">
          <mxGeometry width="50" height="50" relative="1" as="geometry">
            <Array as="points" />
          </mxGeometry>
        </mxCell>
        <mxCell id="edge18" value="" style="html=1;rounded=1;edgeStyle=orthogonalEdgeStyle;dashed=0;startArrow=diamondThinstartSize=12;endArrow=openThin;endSize=12;strokeColor=#595959;exitX=0.000;exitY=0.500;exitDx=0;exitDy=0;entryX=1.000;entryY=0.500;entryDx=0;entryDy=0;" parent="1" source="node32" target="node15" edge="1">
          <mxGeometry width="50" height="50" relative="1" as="geometry">
            <Array as="points">
              <mxPoint x="859" y="2346" />
              <mxPoint x="859" y="2977" />
              <mxPoint x="720" y="2977" />
              <mxPoint x="720" y="3069" />
            </Array>
          </mxGeometry>
        </mxCell>
        <mxCell id="label108" value="" style="edgeLabel;resizable=0;html=1;align=left;verticalAlign=top;strokeColor=default;" parent="edge18" vertex="1" connectable="0">
          <mxGeometry x="1079" y="2341" as="geometry" />
        </mxCell>
        <mxCell id="label112" value="" style="edgeLabel;resizable=0;html=1;align=left;verticalAlign=top;strokeColor=default;" parent="edge18" vertex="1" connectable="0">
          <mxGeometry x="524" y="3069" as="geometry" />
        </mxCell>
        <mxCell id="label113" value="product" style="edgeLabel;resizable=0;html=1;align=left;verticalAlign=top;strokeColor=default;" parent="edge18" vertex="1" connectable="0">
          <mxGeometry x="509" y="3037" as="geometry" />
        </mxCell>
      </root>
    </mxGraphModel>
  </diagram>
</mxfile>
